<svg width="223" height="84" viewBox="0 0 223 84" fill="none" xmlns="http://www.w3.org/2000/svg">
<path d="M38.4307 63.3818V32.4832H42.4034V46.1669H51.673V32.4832H55.6457V63.3818H51.673V49.2567H42.4034V63.3818H38.4307ZM67.3551 63.8232C66.0309 63.8232 64.8685 63.632 63.868 63.2494C62.8968 62.8669 62.1317 62.1753 61.5726 61.1748C61.0135 60.1448 60.7339 58.6735 60.7339 56.7607C60.7339 54.9068 61.0135 53.4943 61.5726 52.5232C62.1317 51.5226 62.8968 50.8458 63.868 50.4927C64.8685 50.1101 66.0309 49.9188 67.3551 49.9188C68.0319 49.9188 68.7676 49.963 69.5621 50.0513C70.3861 50.1395 71.1218 50.2425 71.7692 50.3603V48.3739C71.7692 46.3729 71.3425 45.0633 70.4891 44.4454C69.6651 43.8274 68.4733 43.5184 66.9137 43.5184H62.4996V41.7528C63.1764 41.5173 64.0004 41.3114 64.9715 41.1348C65.972 40.9582 66.9137 40.8699 67.7965 40.8699C69.5621 40.8699 71.0335 41.0759 72.2106 41.4879C73.3877 41.8705 74.2705 42.6062 74.859 43.695C75.4476 44.7543 75.7419 46.314 75.7419 48.3739V63.3818H72.4313L72.2106 62.0576H71.9899C71.4308 62.6167 70.7392 63.0581 69.9153 63.3818C69.0913 63.6761 68.2379 63.8232 67.3551 63.8232ZM68.6793 61.1748C69.2384 61.1748 69.8123 61.0865 70.4008 60.9099C70.9894 60.704 71.4455 60.498 71.7692 60.292V52.5673H68.6793C67.9436 52.5673 67.2668 52.685 66.6488 52.9204C66.0603 53.1558 65.5894 53.5825 65.2363 54.2005C64.8832 54.7891 64.7066 55.6425 64.7066 56.7607C64.7066 57.9378 64.8832 58.85 65.2363 59.4974C65.5894 60.1154 66.0603 60.5568 66.6488 60.8217C67.2668 61.0571 67.9436 61.1748 68.6793 61.1748ZM81.4888 63.3818V41.3114H85.4615V60.5127H91.4205V41.3114H95.3932V60.5127H101.352V41.3114H105.325V63.3818H81.4888ZM119.447 63.8232C117.24 63.8232 115.459 63.4848 114.106 62.808C112.752 62.1017 111.751 60.9247 111.104 59.2767C110.486 57.5994 110.177 55.2893 110.177 52.3466C110.177 49.4039 110.471 47.1085 111.06 45.4606C111.648 43.7832 112.516 42.6062 113.664 41.9293C114.812 41.2231 116.224 40.8699 117.902 40.8699C119.608 40.8699 121.021 41.2231 122.139 41.9293C123.287 42.6062 124.155 43.7832 124.744 45.4606C125.332 47.1085 125.626 49.4039 125.626 52.3466V53.6708H114.15C114.15 56.5253 114.621 58.4969 115.562 59.5857C116.533 60.6451 118.122 61.1748 120.329 61.1748H124.744V62.9404C124.096 63.1464 123.272 63.3377 122.272 63.5143C121.271 63.7202 120.329 63.8232 119.447 63.8232ZM114.15 51.0224H121.654C121.654 49.0213 121.477 47.4617 121.124 46.3434C120.771 45.2252 120.315 44.4454 119.756 44.004C119.196 43.5331 118.578 43.2977 117.902 43.2977C117.254 43.2977 116.636 43.5331 116.048 44.004C115.489 44.4454 115.032 45.2252 114.679 46.3434C114.326 47.4617 114.15 49.0213 114.15 51.0224ZM139.108 70.003V60.292H141.315C141.315 60.292 141.477 59.9536 141.801 59.2767C142.154 58.5999 142.507 57.5847 142.86 56.231C143.213 54.8773 143.434 53.2147 143.522 51.2431L144.405 32.4832H158.751V60.292H161.62V70.003H159.192C158.869 69.1202 158.589 68.1196 158.354 67.0014C158.148 65.9126 157.986 64.7061 157.868 63.3818H142.86C142.743 64.7061 142.566 65.9126 142.331 67.0014C142.125 68.1196 141.86 69.1202 141.536 70.003H139.108ZM145.288 60.292H154.778V35.573H148.245L147.495 51.2431C147.407 53.2147 147.171 54.8773 146.789 56.231C146.436 57.5847 146.097 58.5999 145.774 59.2767C145.45 59.9536 145.288 60.292 145.288 60.292ZM173.976 63.8232C171.769 63.8232 169.989 63.4848 168.635 62.808C167.281 62.1017 166.281 60.9247 165.634 59.2767C165.016 57.5994 164.707 55.2893 164.707 52.3466C164.707 49.4039 165.001 47.1085 165.589 45.4606C166.178 43.7832 167.046 42.6062 168.194 41.9293C169.341 41.2231 170.754 40.8699 172.431 40.8699C174.138 40.8699 175.551 41.2231 176.669 41.9293C177.816 42.6062 178.685 43.7832 179.273 45.4606C179.862 47.1085 180.156 49.4039 180.156 52.3466V53.6708H168.679C168.679 56.5253 169.15 58.4969 170.092 59.5857C171.063 60.6451 172.652 61.1748 174.859 61.1748H179.273V62.9404C178.626 63.1464 177.802 63.3377 176.801 63.5143C175.801 63.7202 174.859 63.8232 173.976 63.8232ZM168.679 51.0224H176.183C176.183 49.0213 176.007 47.4617 175.654 46.3434C175.3 45.2252 174.844 44.4454 174.285 44.004C173.726 43.5331 173.108 43.2977 172.431 43.2977C171.784 43.2977 171.166 43.5331 170.577 44.004C170.018 44.4454 169.562 45.2252 169.209 46.3434C168.856 47.4617 168.679 49.0213 168.679 51.0224ZM184.158 63.8232C183.511 63.8232 182.951 63.7497 182.481 63.6025C182.01 63.4554 181.76 63.3818 181.73 63.3818V61.6162C182.613 61.6162 183.393 61.2042 184.07 60.3803C184.746 59.5563 185.144 58.2026 185.261 56.3193L186.144 41.3114H199.651V63.3818H195.679V44.1805H189.94L189.234 56.3193C189.087 58.9677 188.528 60.8805 187.557 62.0576C186.615 63.2347 185.482 63.8232 184.158 63.8232ZM212.66 63.8232C210.894 63.8232 209.408 63.4701 208.202 62.7639C206.995 62.0282 206.068 60.8217 205.421 59.1443C204.803 57.4669 204.494 55.201 204.494 52.3466C204.494 49.4627 204.803 47.1968 205.421 45.5489C206.068 43.8715 206.995 42.6797 208.202 41.9735C209.408 41.2378 210.894 40.8699 212.66 40.8699C214.426 40.8699 215.912 41.2378 217.118 41.9735C218.354 42.6797 219.281 43.8715 219.899 45.5489C220.517 47.1968 220.826 49.4627 220.826 52.3466C220.826 55.201 220.517 57.4669 219.899 59.1443C219.281 60.8217 218.354 62.0282 217.118 62.7639C215.912 63.4701 214.426 63.8232 212.66 63.8232ZM212.66 61.3955C213.396 61.3955 214.072 61.1306 214.69 60.601C215.338 60.0713 215.853 59.159 216.235 57.8642C216.647 56.54 216.853 54.7008 216.853 52.3466C216.853 49.9924 216.647 48.1679 216.235 46.8731C215.853 45.5489 215.338 44.6219 214.69 44.0922C214.072 43.5625 213.396 43.2977 212.66 43.2977C211.924 43.2977 211.233 43.5625 210.585 44.0922C209.967 44.6219 209.452 45.5489 209.04 46.8731C208.658 48.1679 208.466 49.9924 208.466 52.3466C208.466 54.7008 208.658 56.54 209.04 57.8642C209.452 59.159 209.967 60.0713 210.585 60.601C211.233 61.1306 211.924 61.3955 212.66 61.3955Z" fill="white"/>
<path d="M67.7594 1.56852L66.5747 4.09113C66.4942 4.26249 66.565 4.46563 66.7362 4.54647L83.5711 12.4966C87.0114 14.1212 89.2344 11.7797 89.9158 10.4059L70.0548 0.757243C69.1968 0.340388 68.165 0.705063 67.7594 1.56852Z" fill="white"/>
<path d="M65.4689 7.75724L66.55 5.45531C66.6305 5.28396 66.8345 5.21059 67.0057 5.29142L81.9397 12.3439L80.7129 14.9561C80.3105 15.8128 79.2905 16.1797 78.4346 15.7755L66.2901 10.0404C65.4342 9.6362 65.0665 8.614 65.4689 7.75724Z" fill="white"/>
<path d="M80.7928 15.5447L82.2314 12.4816C83.2335 12.9548 84.328 13.341 84.6962 13.4059L83.8629 15.1801C83.4354 16.0904 82.3205 16.437 81.452 15.9298L80.7928 15.5447Z" fill="white"/>
<path d="M84.0634 15.561L85.0542 13.4514C85.3384 13.5301 85.7685 13.5343 86.0484 13.41C85.7143 14.4204 85.0794 15.2709 84.4906 15.8851C84.2459 16.1403 83.9131 15.8812 84.0634 15.561Z" fill="white"/>
<path d="M69.1144 17.8814L70.5875 14.7447C68.6181 13.8146 68.3416 12.1373 68.4495 11.4149L76.3699 15.1553C75.8833 15.6988 74.4177 16.5534 72.4482 15.6234L70.4544 19.8687L65.2638 19.803C65.0739 19.8006 64.9219 19.6438 64.9252 19.4536L64.9473 18.1731C64.9505 17.9846 65.1051 17.8342 65.2933 17.8364L69.1144 17.8814Z" fill="white"/>
<path d="M11.7114 29.0556C11.186 43.1105 15.9229 53.4377 19.361 59.102C19.5429 59.4017 19.1425 59.7098 18.9205 59.4384C9.16924 47.5219 7.06178 32.7996 7.33051 25.6355C7.35265 25.0453 7.85162 24.5987 8.44217 24.5912C20.1416 24.4424 26.9604 21.826 30.5531 19.7454C30.8537 19.5713 31.2798 20.0581 31.0283 20.2977C24.9504 26.0859 17.137 27.7914 12.8637 27.944C12.2499 27.9659 11.7343 28.4418 11.7114 29.0556Z" fill="white"/>
<path fill-rule="evenodd" clip-rule="evenodd" d="M36.1483 8.69797C35.7047 8.24553 34.9761 8.24553 34.5326 8.69797L33.5291 9.72152C29.6676 13.6605 23.8907 15.8849 17.9492 16.9823C12.045 18.0727 6.3125 17.9879 2.91111 17.5858L1.42808 17.4105C0.78146 17.334 0.203941 17.8178 0.165878 18.4678L0.0781537 19.9659C-0.759527 34.271 4.78052 67.0307 34.1009 83.4699L34.7872 83.8547C35.1308 84.0474 35.55 84.0474 35.8937 83.8547L36.58 83.4699C42.4941 80.154 47.4407 76.1741 51.5626 71.8155L42.673 73.1624C40.6007 74.8721 38.3539 76.4806 35.9196 77.9614C35.5664 78.1762 35.1145 78.1762 34.7612 77.9614C11.654 63.9055 5.43376 38.3287 5.09299 24.0671C5.07748 23.4182 5.62241 22.9063 6.27124 22.9267C9.8533 23.0394 14.3097 22.834 18.8694 21.9918C24.2425 20.9995 29.9966 19.0788 34.6076 15.5403C35.0389 15.2093 35.6419 15.2093 36.0732 15.5403C40.6843 19.0788 46.4384 20.9995 51.8115 21.9918C56.3712 22.834 60.8276 23.0394 64.4096 22.9267C65.0585 22.9063 65.6034 23.4182 65.5879 24.0671C65.5448 25.8692 65.4079 27.8519 65.1549 29.9691L70.084 31.4188C70.6679 26.9776 70.783 23.0444 70.6027 19.9659L70.515 18.4678C70.4769 17.8178 69.8994 17.334 69.2528 17.4105L67.7698 17.5858C64.3684 17.9879 58.6358 18.0727 52.7317 16.9823C46.7902 15.8849 41.0133 13.6605 37.1517 9.72152L36.1483 8.69797Z" fill="white"/>
</svg>
