<svg width="22" height="22" viewBox="0 0 22 22" fill="none" xmlns="http://www.w3.org/2000/svg">
<path d="M17.5627 9.35597V8.85255C17.5627 8.77722 17.5627 8.73956 17.5622 8.7077C17.5277 6.30011 15.5844 4.35673 13.1768 4.32225C13.1449 4.32179 13.1073 4.32179 13.0319 4.32179H12.5285M9.03178 7.60371C8.62843 8.52904 8.83257 9.60695 9.54633 10.3207L11.6793 12.4537C12.3931 13.1675 13.471 13.3716 14.3963 12.9683C15.3217 12.5649 16.3996 12.769 17.1133 13.4828L18.411 14.7805C18.4739 14.8434 18.5053 14.8748 18.5308 14.9025C19.1565 15.5834 19.1565 16.6301 18.5308 17.311C18.5053 17.3387 18.4739 17.3701 18.411 17.433L17.6222 18.2218C16.9799 18.8641 16.0539 19.1338 15.1671 18.9367C9.12489 17.594 4.40604 12.8751 3.06332 6.83291C2.86626 5.94613 3.13591 5.02014 3.77825 4.3778L4.56703 3.58902C4.6299 3.52615 4.66133 3.49471 4.68903 3.46927C5.36996 2.84358 6.41661 2.84358 7.09754 3.46927C7.12523 3.49471 7.15667 3.52615 7.21954 3.58902L8.51722 4.8867C9.23099 5.60047 9.43513 6.67838 9.03178 7.60371Z" stroke="#2B364C" stroke-linecap="round"/>
</svg>
