<svg width="224" height="84" viewBox="0 0 224 84" fill="none" xmlns="http://www.w3.org/2000/svg">
<path d="M38.4942 63.3601V32.4614H42.4669V46.1451H51.7365V32.4614H55.7091V63.3601H51.7365V49.235H42.4669V63.3601H38.4942ZM67.4186 63.8015C66.0943 63.8015 64.932 63.6102 63.9314 63.2277C62.9603 62.8451 62.1952 62.1536 61.6361 61.1531C61.077 60.1231 60.7974 58.6517 60.7974 56.739C60.7974 54.885 61.077 53.4725 61.6361 52.5014C62.1952 51.5009 62.9603 50.8241 63.9314 50.4709C64.932 50.0884 66.0943 49.8971 67.4186 49.8971C68.0954 49.8971 68.8311 49.9413 69.6256 50.0295C70.4496 50.1178 71.1853 50.2208 71.8327 50.3385V48.3522C71.8327 46.3511 71.406 45.0416 70.5526 44.4236C69.7286 43.8057 68.5368 43.4967 66.9772 43.4967H62.5631V41.731C63.2399 41.4956 64.0638 41.2896 65.035 41.1131C66.0355 40.9365 66.9772 40.8482 67.86 40.8482C69.6256 40.8482 71.097 41.0542 72.2741 41.4662C73.4512 41.8487 74.334 42.5844 74.9225 43.6732C75.5111 44.7326 75.8053 46.2923 75.8053 48.3522V63.3601H72.4948L72.2741 62.0359H72.0534C71.4942 62.595 70.8027 63.0364 69.9787 63.3601C69.1548 63.6544 68.3014 63.8015 67.4186 63.8015ZM68.7428 61.1531C69.3019 61.1531 69.8757 61.0648 70.4643 60.8882C71.0528 60.6822 71.509 60.4762 71.8327 60.2702V52.5456H68.7428C68.0071 52.5456 67.3303 52.6633 66.7123 52.8987C66.1238 53.1341 65.6529 53.5608 65.2998 54.1788C64.9467 54.7673 64.7701 55.6207 64.7701 56.739C64.7701 57.9161 64.9467 58.8283 65.2998 59.4757C65.6529 60.0937 66.1238 60.5351 66.7123 60.7999C67.3303 61.0354 68.0071 61.1531 68.7428 61.1531ZM81.5523 63.3601V41.2896H85.525V60.4909H91.484V41.2896H95.4567V60.4909H101.416V41.2896H105.388V63.3601H81.5523ZM119.51 63.8015C117.303 63.8015 115.523 63.4631 114.169 62.7863C112.815 62.08 111.815 60.9029 111.167 59.255C110.549 57.5776 110.24 55.2676 110.24 52.3249C110.24 49.3821 110.535 47.0868 111.123 45.4389C111.712 43.7615 112.58 42.5844 113.728 41.9076C114.875 41.2013 116.288 40.8482 117.965 40.8482C119.672 40.8482 121.084 41.2013 122.203 41.9076C123.35 42.5844 124.218 43.7615 124.807 45.4389C125.396 47.0868 125.69 49.3821 125.69 52.3249V53.6491H114.213C114.213 56.5035 114.684 58.4752 115.626 59.564C116.597 60.6234 118.186 61.1531 120.393 61.1531H124.807V62.9187C124.16 63.1247 123.336 63.316 122.335 63.4925C121.335 63.6985 120.393 63.8015 119.51 63.8015ZM114.213 51.0006H121.717C121.717 48.9996 121.541 47.4399 121.187 46.3217C120.834 45.2035 120.378 44.4236 119.819 43.9822C119.26 43.5114 118.642 43.276 117.965 43.276C117.318 43.276 116.7 43.5114 116.111 43.9822C115.552 44.4236 115.096 45.2035 114.743 46.3217C114.39 47.4399 114.213 48.9996 114.213 51.0006ZM139.172 69.9813V60.2702H141.379C141.379 60.2702 141.541 59.9318 141.864 59.255C142.217 58.5782 142.571 57.5629 142.924 56.2093C143.277 54.8556 143.498 53.193 143.586 51.2213L144.469 32.4614H158.814V60.2702H161.684V69.9813H159.256C158.932 69.0984 158.653 68.0979 158.417 66.9797C158.211 65.8909 158.049 64.6843 157.932 63.3601H142.924C142.806 64.6843 142.629 65.8909 142.394 66.9797C142.188 68.0979 141.923 69.0984 141.6 69.9813H139.172ZM145.351 60.2702H154.842V35.5513H148.309L147.559 51.2213C147.47 53.193 147.235 54.8556 146.852 56.2093C146.499 57.5629 146.161 58.5782 145.837 59.255C145.513 59.9318 145.351 60.2702 145.351 60.2702ZM174.04 63.8015C171.833 63.8015 170.052 63.4631 168.699 62.7863C167.345 62.08 166.344 60.9029 165.697 59.255C165.079 57.5776 164.77 55.2676 164.77 52.3249C164.77 49.3821 165.064 47.0868 165.653 45.4389C166.241 43.7615 167.11 42.5844 168.257 41.9076C169.405 41.2013 170.817 40.8482 172.495 40.8482C174.202 40.8482 175.614 41.2013 176.732 41.9076C177.88 42.5844 178.748 43.7615 179.337 45.4389C179.925 47.0868 180.219 49.3821 180.219 52.3249V53.6491H168.743C168.743 56.5035 169.214 58.4752 170.155 59.564C171.126 60.6234 172.715 61.1531 174.922 61.1531H179.337V62.9187C178.689 63.1247 177.865 63.316 176.865 63.4925C175.864 63.6985 174.922 63.8015 174.04 63.8015ZM168.743 51.0006H176.247C176.247 48.9996 176.07 47.4399 175.717 46.3217C175.364 45.2035 174.908 44.4236 174.349 43.9822C173.79 43.5114 173.172 43.276 172.495 43.276C171.847 43.276 171.229 43.5114 170.641 43.9822C170.082 44.4236 169.626 45.2035 169.272 46.3217C168.919 47.4399 168.743 48.9996 168.743 51.0006ZM184.221 63.8015C183.574 63.8015 183.015 63.7279 182.544 63.5808C182.073 63.4337 181.823 63.3601 181.794 63.3601V61.5945C182.676 61.5945 183.456 61.1825 184.133 60.3585C184.81 59.5346 185.207 58.1809 185.325 56.2976L186.208 41.2896H199.715V63.3601H195.742V44.1588H190.004L189.298 56.2976C189.15 58.946 188.591 60.8588 187.62 62.0359C186.679 63.213 185.546 63.8015 184.221 63.8015ZM212.723 63.8015C210.958 63.8015 209.472 63.4484 208.265 62.7421C207.059 62.0065 206.132 60.7999 205.484 59.1226C204.866 57.4452 204.557 55.1793 204.557 52.3249C204.557 49.441 204.866 47.1751 205.484 45.5272C206.132 43.8498 207.059 42.658 208.265 41.9517C209.472 41.2161 210.958 40.8482 212.723 40.8482C214.489 40.8482 215.975 41.2161 217.182 41.9517C218.418 42.658 219.345 43.8498 219.962 45.5272C220.58 47.1751 220.889 49.441 220.889 52.3249C220.889 55.1793 220.58 57.4452 219.962 59.1226C219.345 60.7999 218.418 62.0065 217.182 62.7421C215.975 63.4484 214.489 63.8015 212.723 63.8015ZM212.723 61.3738C213.459 61.3738 214.136 61.1089 214.754 60.5792C215.401 60.0495 215.916 59.1373 216.299 57.8425C216.711 56.5183 216.917 54.6791 216.917 52.3249C216.917 49.9707 216.711 48.1462 216.299 46.8514C215.916 45.5272 215.401 44.6002 214.754 44.0705C214.136 43.5408 213.459 43.276 212.723 43.276C211.988 43.276 211.296 43.5408 210.649 44.0705C210.031 44.6002 209.516 45.5272 209.104 46.8514C208.721 48.1462 208.53 49.9707 208.53 52.3249C208.53 54.6791 208.721 56.5183 209.104 57.8425C209.516 59.1373 210.031 60.0495 210.649 60.5792C211.296 61.1089 211.988 61.3738 212.723 61.3738Z" fill="#2B364C"/>
<path d="M67.8818 1.5677L66.6953 4.08719C66.6146 4.25845 66.6853 4.46138 66.8566 4.54204L83.7225 12.4849C87.169 14.108 89.396 11.7687 90.0787 10.3962L70.1796 0.75553C69.3211 0.339616 68.2882 0.704693 67.8818 1.5677Z" fill="#2B364C"/>
<path d="M65.5877 7.74934L66.6704 5.45037C66.7511 5.2791 66.9553 5.20565 67.1266 5.2863L82.0882 12.3324L80.8594 14.9415C80.4561 15.7978 79.435 16.1651 78.5787 15.7618L66.408 10.0301C65.5517 9.62679 65.1844 8.60567 65.5877 7.74934Z" fill="#2B364C"/>
<path d="M80.9392 15.5303L82.3804 12.47C83.3842 12.9428 84.4808 13.3286 84.8496 13.3934L84.015 15.1655C83.5866 16.0752 82.4708 16.4224 81.6019 15.9163L80.9392 15.5303Z" fill="#2B364C"/>
<path d="M84.2151 15.5478L85.2083 13.4389C85.493 13.5175 85.9238 13.5216 86.2042 13.3975C85.8693 14.4077 85.2326 15.2579 84.6424 15.8716C84.3973 16.1264 84.0644 15.8677 84.2151 15.5478Z" fill="#2B364C"/>
<path d="M69.2394 17.8649L70.7152 14.7312C68.7422 13.802 68.4651 12.1262 68.5732 11.4045L76.5081 15.1414C76.0206 15.6844 74.5523 16.5382 72.5792 15.609L70.5818 19.8504L65.381 19.7848C65.1911 19.7824 65.0393 19.626 65.0426 19.4361L65.0647 18.1568C65.0679 17.9683 65.2229 17.8178 65.4114 17.82L69.2394 17.8649Z" fill="#2B364C"/>
<path d="M11.733 29.0294C11.2068 43.072 15.953 53.3897 19.3973 59.0484C19.5796 59.3478 19.1795 59.6565 18.9571 59.3855C9.1869 47.4801 7.07514 32.7708 7.3442 25.6125C7.36638 25.0225 7.86533 24.576 8.45579 24.5685C20.1812 24.4201 27.0135 21.8045 30.6121 19.7253C30.9129 19.5515 31.3381 20.0386 31.0862 20.2778C24.996 26.0626 17.1661 27.7663 12.8852 27.9183C12.2715 27.94 11.756 28.4158 11.733 29.0294Z" fill="#2B364C"/>
<path fill-rule="evenodd" clip-rule="evenodd" d="M36.2113 8.68734C35.768 8.23638 35.0411 8.23638 34.5978 8.68734L33.59 9.71253C29.7214 13.6478 23.934 15.8702 17.9818 16.9665C12.0669 18.0559 6.32396 17.9712 2.91639 17.5695L1.42798 17.394C0.78155 17.3178 0.204303 17.8014 0.166148 18.4512L0.0782955 19.9474C-0.760905 34.2391 4.78919 66.9683 34.1627 83.3922L34.8524 83.7779C35.1955 83.9697 35.6136 83.9697 35.9567 83.7779L36.6464 83.3922C42.5711 80.0795 47.5265 76.1034 51.6558 71.7491L42.7499 73.0947C40.6734 74.8032 38.4219 76.4105 35.9826 77.8901C35.63 78.104 35.1791 78.104 34.8265 77.8901C11.676 63.848 5.44391 38.2946 5.10225 24.0457C5.08669 23.3968 5.63153 22.885 6.2803 22.9053C9.86924 23.0181 14.3347 22.813 18.9036 21.9714C24.2875 20.9798 30.0532 19.0604 34.673 15.5239C35.1038 15.1942 35.7053 15.1942 36.1361 15.5239C40.7559 19.0604 46.5216 20.9798 51.9055 21.9714C56.4745 22.813 60.9399 23.0181 64.5288 22.9053C65.1776 22.885 65.7224 23.3968 65.7069 24.0457C65.6637 25.8459 65.5265 27.8265 65.2731 29.9416L70.2111 31.3899C70.7961 26.9527 70.9114 23.0231 70.7308 19.9474L70.643 18.4512C70.6048 17.8014 70.0276 17.3178 69.3811 17.394L67.8927 17.5695C64.4852 17.9712 58.7422 18.0559 52.8273 16.9665C46.8751 15.8702 41.0877 13.6478 37.2191 9.71253L36.2113 8.68734Z" fill="#2B364C"/>
</svg>
